<svg xmlns="http://www.w3.org/2000/svg" width="760" height="520" viewBox="0 0 760 520">
  <defs>
    <linearGradient id="bg" x1="0" y1="0" x2="1" y2="1">
      <stop offset="0%" stop-color="#0b1220"/>
      <stop offset="100%" stop-color="#142b3f"/>
    </linearGradient>
    <linearGradient id="accent" x1="0" y1="1" x2="1" y2="0">
      <stop offset="0%" stop-color="#22d3ee"/>
      <stop offset="100%" stop-color="#38bdf8"/>
    </linearGradient>
  </defs>
  <rect width="760" height="520" rx="24" fill="url(#bg)"/>
  <g stroke="#1e3a5f" stroke-width="1">
    <path d="M50 90 H710"/>
    <path d="M50 170 H710"/>
    <path d="M50 250 H710"/>
    <path d="M50 330 H710"/>
    <path d="M50 410 H710"/>
  </g>
  <g fill="#0f172a" stroke="#22d3ee" stroke-width="2">
    <rect x="80" y="120" width="200" height="90" rx="16"/>
    <rect x="300" y="210" width="200" height="90" rx="16"/>
    <rect x="520" y="130" width="180" height="90" rx="16"/>
  </g>
  <g stroke="url(#accent)" stroke-width="4" stroke-linecap="round">
    <path d="M180 210 C240 250, 270 250, 330 265"/>
    <path d="M470 255 C520 245, 565 230, 610 210"/>
  </g>
  <g fill="#22d3ee" opacity="0.35">
    <circle cx="610" cy="380" r="90"/>
  </g>
  <g font-family="'Space Grotesk', sans-serif" font-size="14" fill="#e2e8f0">
    <text x="70" y="60">Real-time Delivery Intelligence</text>
    <text x="110" y="155">Streaming Inputs</text>
    <text x="330" y="245">Feature Store</text>
    <text x="545" y="165">Analytics Layer</text>
  </g>
</svg>
