<svg xmlns="http://www.w3.org/2000/svg" width="760" height="520" viewBox="0 0 760 520">
  <defs>
    <linearGradient id="bg" x1="0" y1="0" x2="1" y2="1">
      <stop offset="0%" stop-color="#0b1220"/>
      <stop offset="100%" stop-color="#102236"/>
    </linearGradient>
    <linearGradient id="pulse" x1="0" y1="1" x2="1" y2="0">
      <stop offset="0%" stop-color="#84cc16"/>
      <stop offset="100%" stop-color="#22d3ee"/>
    </linearGradient>
  </defs>
  <rect width="760" height="520" rx="24" fill="url(#bg)"/>
  <g stroke="#1e3a5f" stroke-width="1">
    <path d="M70 110 H690"/>
    <path d="M70 190 H690"/>
    <path d="M70 270 H690"/>
    <path d="M70 350 H690"/>
    <path d="M70 430 H690"/>
  </g>
  <g fill="url(#pulse)">
    <rect x="120" y="260" width="60" height="160" rx="8"/>
    <rect x="220" y="210" width="60" height="210" rx="8"/>
    <rect x="320" y="150" width="60" height="270" rx="8"/>
    <rect x="420" y="190" width="60" height="230" rx="8"/>
    <rect x="520" y="120" width="60" height="300" rx="8"/>
  </g>
  <g fill="#0f172a" stroke="#22d3ee" stroke-width="2">
    <circle cx="585" cy="155" r="58"/>
  </g>
  <path d="M585 155 L635 130" stroke="#22d3ee" stroke-width="3"/>
  <circle cx="585" cy="155" r="5" fill="#22d3ee"/>
  <g font-family="'Space Grotesk', sans-serif" font-size="14" fill="#e2e8f0">
    <text x="70" y="70">Executive KPI Command Center</text>
  </g>
</svg>
