<svg xmlns="http://www.w3.org/2000/svg" width="640" height="420" viewBox="0 0 640 420">
  <defs>
    <linearGradient id="bg" x1="0" y1="0" x2="1" y2="1">
      <stop offset="0%" stop-color="#0b1220"/>
      <stop offset="100%" stop-color="#132a36"/>
    </linearGradient>
    <linearGradient id="bar" x1="0" y1="1" x2="0" y2="0">
      <stop offset="0%" stop-color="#22d3ee"/>
      <stop offset="100%" stop-color="#38bdf8"/>
    </linearGradient>
  </defs>
  <rect width="640" height="420" rx="20" fill="url(#bg)"/>
  <g stroke="#1e3a5f" stroke-width="1">
    <path d="M60 80 H580"/>
    <path d="M60 140 H580"/>
    <path d="M60 200 H580"/>
    <path d="M60 260 H580"/>
    <path d="M60 320 H580"/>
  </g>
  <g fill="url(#bar)">
    <rect x="100" y="210" width="50" height="140" rx="6"/>
    <rect x="180" y="170" width="50" height="180" rx="6"/>
    <rect x="260" y="120" width="50" height="230" rx="6"/>
    <rect x="340" y="150" width="50" height="200" rx="6"/>
    <rect x="420" y="90" width="50" height="260" rx="6"/>
  </g>
  <circle cx="520" cy="130" r="50" fill="#1e293b" stroke="#22d3ee" stroke-width="2"/>
  <path d="M520 130 L560 110" stroke="#22d3ee" stroke-width="3"/>
  <circle cx="520" cy="130" r="4" fill="#22d3ee"/>
  <g font-family="'Space Grotesk', sans-serif" font-size="14" fill="#e2e8f0">
    <text x="60" y="50">Executive KPI Dashboard</text>
  </g>
</svg>
